<svg xmlns="http://www.w3.org/2000/svg" xmlns:xlink="http://www.w3.org/1999/xlink" version="1.1" id="Capa_2" x="0px" y="0px" style="enable-background:new 0 0 2122 2122;" xml:space="preserve" viewBox="610.79 424.26 899.73 1272.79">
<g>
	<path style="fill:#FBCBAA;" d="M1508.815,940.315c-1.94-7.443-11.209-42.006-26.525-83.58c10.896-7.463,16.965-13.56,15.938-15.998   c-30.181-93.187-70.637-145.728-106.583-163.164c-25.036-16.424-70.617-28.344-124.554-31.443l-3.182-14.861   c126.75-20.978,144.774-94.13,144.774-94.13s-16.006-27.486-39.385-24.95c-23.38,2.537-41.71-3.75-47.194-19.706   c-5.484-15.955-14.486-28.217-35.558-28.664c-15.991-0.339-25.169-10.317-28.668-15.112c-9.587-15.699-27.361-25.66-46.983-24.323   c-19.622,1.338-35.878,13.621-43.245,30.477c-2.816,5.224-10.554,16.355-26.351,18.863c-20.815,3.303-28.068,16.673-31.336,33.226   c-3.268,16.553-20.573,25.27-44.081,25.931c-23.507,0.661-35.635,30.066-35.635,30.066s28.67,72.242,162.337,73.72l2.288,10.688   c-65.887,6.15-116.411,25.7-126.908,49.921c-0.516,0.946-24.364,45.062-36.632,140.385H877.807c-6.123,0-10.245,6.268-7.821,11.889   l23.924,55.486c-4.262,0.322-8.536,1.349-12.66,3.134l-0.013-0.027l-1.147,0.55l-0.18,0.083l-0.236,0.116   c-37.597,18.102-65.598,37.31-62.804,43.165c1.271,2.664,8.702,2.109,19.973-0.965c-12.764,7.748-22,14.666-25.722,19.401   l-30.824,2.692l0.003,0.217c-50.677,4.996-90.268,47.74-90.268,99.731c0,22.273,7.266,42.847,19.557,59.485l-0.01,0.013   l117.441,164.751l-0.349,1.742c-0.254,1.267,0.568,2.499,1.835,2.753h0l-26.882,134.381c-0.425,1.241,1.487,3.2,5.08,5.567   l-34.84,115.507l-11.448-4.201l-13.227,36.049c-33.693,27.82-136.392,35.732-136.392,35.732l76.757,28.162l37.021-2.257   l-5.122,13.96l87.971,32.276l40.963-111.646l-14.413-5.288l55.289-110.296c3.335,0.07,5.399-0.432,5.791-1.576l0.053,0.018   c0,0,8.485-14.591,22.542-40.119l0.038,0.022c0.807,0.424,1.749,0.328,2.445-0.167l0.382,0.534l0.898-0.475   c0.842,0.925,3.479,0.816,7.374-0.114l37.82,65.48v147.767c-18.287,29.772-38.488,54.896-38.488,54.896l38.488-19.313v3.784   c0,8.576,6.953,15.529,15.529,15.529c8.577,0,15.53-6.953,15.53-15.529v-19.368l3.53-1.771l23.7-28.53l6.669,13.291l68.632-34.439   v70.817c0,8.576,6.953,15.529,15.529,15.529c8.576,0,15.529-6.953,15.529-15.529V1300.85h133.59v379.716   c0,8.576,6.952,15.529,15.529,15.529c8.577,0,15.529-6.953,15.529-15.529V1300.85h102.532v379.716   c0,8.576,6.953,15.529,15.529,15.529c8.577,0,15.529-6.953,15.529-15.529v-379.721c8.484-0.107,15.329-7.015,15.329-15.524   c0-8.029-6.094-14.634-13.909-15.445c-1.929-130.918-61.449-125.273-139.05-122.768c3.234-1.622,6.405-3.35,9.509-5.182   c22.979-13.107,41.026-29.701,52.781-50.536c16.239-24.961,25.677-54.754,25.677-86.753c0-5.702-0.302-11.333-0.886-16.88   c27.036,6.964,53.804,11.587,77.855,11.916c7.922,1.106,16.232,0.212,24.181-2.999   C1503.468,987.589,1515.147,963.146,1508.815,940.315z M1100.193,1572.027l-38.215-76.159l-13.721,6.885l-42.543-115.81   c2.334-2.383,3.382-4.23,2.816-5.299c-0.195-0.369-0.577-0.629-1.126-0.79c-1.135-3.753-4.453-14.619-9.741-31.144v-48.861h102.531   V1572.027z"/>
	<g>
		<path style="fill:#EC624B;" d="M1007.402,1380.855c-1.136-3.753-4.453-14.619-9.742-31.144v43.958    c3.417-2.509,6.158-4.793,8.051-6.726c2.334-2.383,3.381-4.23,2.816-5.299C1008.332,1381.276,1007.95,1381.016,1007.402,1380.855z    "/>
		<path style="fill:#EC624B;" d="M1350.403,979.621c-48.228-14.993-94.544-35.288-124.858-49.646    c-3.731,2.784-8.02,4.951-12.764,6.303c-1.675,0.477-3.355,0.838-5.033,1.088c-16.601,4.45-31.831,7.601-43.802,9.218    l10.27,23.819h100.056c5.36,0,9.707,4.345,9.707,9.707c0,2.761-1.156,5.252-3.007,7.02c-1.743,1.663-4.101,2.687-6.7,2.687    h-336.08c-3.827,0-7.354-1.857-9.532-4.878c-0.494-0.685-0.918-1.427-1.261-2.223l-0.849-1.97l-8.448-19.593l-106.983,9.343    l-30.824,2.692l0.003,0.217c-50.678,4.996-90.269,47.74-90.269,99.731c0,22.273,7.266,42.847,19.557,59.485l-0.01,0.013    l117.44,164.751l-0.349,1.742c-0.254,1.267,0.568,2.5,1.834,2.753h0.001l-26.881,134.382c-0.425,1.241,1.487,3.2,5.08,5.567    c7.853,5.174,23.737,12.297,40.819,18.147c17.69,6.057,33.552,9.681,41.739,9.853c3.335,0.07,5.399-0.431,5.791-1.575l0.054,0.018    c0,0,8.484-14.591,22.542-40.12c0.013,0.007,0.024,0.016,0.038,0.022c0.808,0.425,1.749,0.328,2.445-0.167l0.382,0.535    l0.897-0.475c0.842,0.924,3.479,0.815,7.374-0.114c8.507-2.03,22.998-7.967,37.82-15.582v-111.695    c-7.469-1.125-13.196-7.571-13.196-15.355c0-6.414,3.889-11.92,9.438-14.288c1.775-147.035,75.454-123.397,166.084-123.397    c24.211,0,47.212-1.687,67.956-1.356c20.744-0.331,43.745,1.356,67.956,1.356c9.201,0,18.226-0.243,27.019-0.527    c3.233-1.622,6.405-3.35,9.508-5.181c22.979-13.107,41.026-29.702,52.781-50.536c16.239-24.961,25.676-54.754,25.676-86.752    c0-5.702-0.302-11.333-0.886-16.88C1369.424,985.307,1359.877,982.566,1350.403,979.621z"/>
		<path style="fill:#EC624B;" d="M1498.226,840.737c-30.181-93.187-70.637-145.728-106.583-163.164    c-25.036-16.424-70.617-28.344-124.555-31.443l2.89,13.5c0.953,4.457-13.787,11.39-32.926,15.488    c-19.138,4.096-35.427,3.805-36.38-0.653l-5.803-27.108c-65.887,6.15-116.411,25.7-126.908,49.921    c-0.516,0.946-24.364,45.062-36.632,140.385h77.922c4.693,0,8.936,2.792,10.794,7.101l15.618,36.222    c12.505-6.37,32.374-13.857,55.269-20.466c0.08-0.023,0.158-0.048,0.238-0.071c0.057-0.016,0.115-0.031,0.173-0.047    c0.413-0.119,0.826-0.237,1.241-0.356l0.008,0.029c5.469-1.344,10.97-1.473,16.21-0.548l140.539,21.68l5.43,0.838l55.336,8.537    c0.357-1.078,1.454-1.764,2.607-1.569l3.276,0.554c5.959-2.257,12.191-4.745,18.579-7.435    c19.491-8.206,36.271-17.557,47.72-25.399C1493.185,849.271,1499.253,843.175,1498.226,840.737z"/>
	</g>
	<g>
		<path style="fill:#1F2D50;" d="M1212.781,936.278c-1.675,0.477-3.355,0.838-5.033,1.088c-16.601,4.45-31.831,7.601-43.802,9.218    l10.27,23.819h100.056c5.36,0,9.707,4.345,9.707,9.707c0,2.761-1.156,5.252-3.007,7.02c26.221-1.62,49.829-4.205,69.43-7.508    c-48.228-14.993-94.544-35.288-124.858-49.646C1221.814,932.759,1217.525,934.926,1212.781,936.278z"/>
		<path style="fill:#1F2D50;" d="M1498.226,840.737c-30.181-93.187-70.637-145.728-106.583-163.164    c-25.036-16.424-70.617-28.344-124.555-31.443l2.89,13.5c0.953,4.457-13.787,11.39-32.926,15.488    c-19.138,4.096-35.427,3.805-36.38-0.653l-5.803-27.108c-65.887,6.15-116.411,25.7-126.908,49.921    c-0.516,0.946-24.364,45.062-36.632,140.385h77.922c4.693,0,8.936,2.792,10.794,7.101l15.618,36.222    c12.505-6.37,32.374-13.857,55.269-20.466c0.08-0.023,0.158-0.048,0.238-0.071c0.057-0.016,0.115-0.031,0.173-0.047    c0.413-0.119,0.826-0.237,1.241-0.356l0.008,0.029c5.469-1.344,10.97-1.473,16.21-0.548l140.539,21.68l5.43,0.838l55.336,8.537    c0.357-1.078,1.454-1.764,2.607-1.569l3.276,0.554c5.959-2.257,12.191-4.745,18.579-7.435    c19.491-8.206,36.271-17.557,47.72-25.399C1493.185,849.271,1499.253,843.175,1498.226,840.737z"/>
	</g>
	<g>
		<path style="fill:#D8A740;" d="M1274.273,970.403h-100.056l-10.27-23.819l-28.283-65.597l-15.618-36.222    c-1.858-4.309-6.101-7.101-10.794-7.101H877.806c-6.123,0-10.246,6.268-7.822,11.889l23.924,55.487l24.194,56.114l8.448,19.593    l0.849,1.97c0.343,0.796,0.768,1.539,1.261,2.223c2.179,3.021,5.706,4.878,9.532,4.878h336.08c2.599,0,4.957-1.024,6.7-2.687    c1.851-1.767,3.007-4.258,3.007-7.02C1283.98,974.748,1279.633,970.403,1274.273,970.403z"/>
		<path style="fill:#7681BF;" d="M1430.908,1269.876c-1.929-130.918-61.449-125.273-139.05-122.768    c-8.794,0.284-17.819,0.527-27.019,0.527c-24.211,0-47.212-1.687-67.956-1.356c-20.744-0.331-43.745,1.356-67.956,1.356    c-90.63,0-164.309-23.638-166.084,123.397c-5.549,2.368-9.438,7.874-9.438,14.288c0,7.784,5.727,14.23,13.196,15.355v379.891    c0,8.576,6.953,15.529,15.529,15.529s15.529-6.953,15.529-15.529v-379.716h102.532v271.178l15.12,30.134l-15.12,7.587v70.817    c0,8.576,6.953,15.529,15.529,15.529s15.529-6.953,15.529-15.529v-379.716h133.59v379.716c0,8.576,6.952,15.529,15.529,15.529    c8.577,0,15.529-6.953,15.529-15.529v-379.716h102.531v379.716c0,8.576,6.953,15.529,15.529,15.529    c8.577,0,15.529-6.953,15.529-15.529v-379.721c8.484-0.107,15.33-7.015,15.33-15.525    C1444.818,1277.291,1438.723,1270.686,1430.908,1269.876z"/>
	</g>
	<path style="fill:#FED584;" d="M1430.908,1269.876c-0.532-0.055-1.073-0.085-1.619-0.085H968.934c-2.162,0-4.22,0.443-6.09,1.241   c-5.549,2.368-9.438,7.874-9.438,14.288c0,7.784,5.727,14.23,13.196,15.355v379.891c0,8.576,6.953,15.529,15.529,15.529   s15.529-6.953,15.529-15.529v-379.716h102.532v271.178l15.12,30.134l-15.12,7.587v70.817c0,8.576,6.953,15.529,15.529,15.529   s15.529-6.953,15.529-15.529v-379.716h133.59v379.716c0,8.576,6.952,15.529,15.529,15.529c8.577,0,15.529-6.953,15.529-15.529   v-379.716h102.531v379.716c0,8.576,6.953,15.529,15.529,15.529c8.577,0,15.529-6.953,15.529-15.529v-379.721   c8.484-0.107,15.33-7.015,15.33-15.525C1444.818,1277.291,1438.723,1270.686,1430.908,1269.876z"/>
	<path style="fill:#D89324;" d="M1100.192,1300.85v271.177l15.121,30.134l-15.121,7.587v70.817c0,8.576,6.953,15.529,15.529,15.529   s15.529-6.953,15.529-15.529V1300.85H1100.192z"/>
	<path style="fill:#D89324;" d="M1398.43,1300.85v379.716c0,8.576,6.953,15.529,15.529,15.529c8.577,0,15.529-6.953,15.529-15.529   v-379.721c-0.067,0.001-0.133,0.005-0.199,0.005H1398.43z"/>
	<path style="fill:#8E2A53;" d="M1187.453,614.853L1187.453,614.853c-0.484-0.109-0.897-0.363-1.208-0.703   c-21.643-6.575-36.546-27.53-34.623-50.992l3.056-37.304c0.513-6.259,2.18-12.147,4.773-17.474   c21.985-2.421,34.158-17.049,34.158-17.049c9.548,27.958,53.442,26.069,53.442,26.069c-7.985,12.906-6.991,24.561-5.452,30.878   c1.084-1.025,2.276-1.989,3.572-2.87c9.864-6.709,21.946-6.143,26.987,1.267c5.04,7.41,1.13,18.855-8.735,25.565   c-3.588,2.44-7.468,3.913-11.196,4.45l11.683,54.579c126.749-20.978,144.774-94.131,144.774-94.131s-16.006-27.486-39.386-24.95   c-23.38,2.537-41.71-3.75-47.194-19.706c-5.484-15.955-14.486-28.217-35.558-28.664c-15.991-0.339-25.168-10.317-28.668-15.111   c-9.587-15.699-27.361-25.661-46.983-24.323c-19.621,1.338-35.877,13.62-43.245,30.477c-2.816,5.224-10.554,16.355-26.352,18.863   c-20.815,3.303-28.068,16.673-31.336,33.226c-3.268,16.553-20.573,25.27-44.081,25.931c-23.507,0.661-35.635,30.066-35.635,30.066   s28.671,72.243,162.337,73.721l-4.648-21.713C1187.774,614.921,1187.612,614.889,1187.453,614.853z"/>
	<polygon style="fill:#1F2D50;" points="1100.192,1572.027 1061.976,1495.869 1048.255,1502.754 997.661,1528.141 997.661,1661.197    1001.19,1659.426 1024.891,1630.896 1031.56,1644.187 1100.192,1609.748 1115.312,1602.161  "/>
	<path style="fill:#1F2D50;" d="M928.115,1696.094l38.487-19.313v-35.583C948.314,1670.971,928.115,1696.094,928.115,1696.094z"/>
	<path style="fill:#1F2D50;" d="M724.571,1650.82l-5.122,13.96l87.971,32.276l40.962-111.646l-14.412-5.288l-62.11-22.788   l-11.449-4.2l-13.227,36.049c-33.693,27.82-136.392,35.731-136.392,35.731l76.757,28.162L724.571,1650.82z"/>
	<path style="fill:#F29484;" d="M1192.574,567.317c0.982-0.84,1.097-2.317,0.258-3.298l-9.053-10.585   c-0.531-0.624-0.783-1.366-0.785-2.124c0.003-0.918,0.374-1.81,1.115-2.462l10.116-8.868c0.971-0.852,1.069-2.33,0.217-3.301   c-0.852-0.971-2.33-1.069-3.301-0.217l0,0l-10.116,8.867c-1.788,1.565-2.712,3.777-2.709,5.98   c-0.002,1.823,0.632,3.674,1.909,5.165l9.053,10.585C1190.116,568.041,1191.592,568.156,1192.574,567.317z"/>
	<path style="fill:#010202;" d="M1174.772,530.485c-1.288-0.122-2.488,1.409-2.679,3.421c-0.191,2.012,0.698,3.742,1.988,3.865   c1.288,0.122,2.487-1.41,2.679-3.422C1176.95,532.338,1176.06,530.607,1174.772,530.485z"/>
	<path style="fill:#010202;" d="M1208.309,537.241c1.288,0.122,2.488-1.41,2.679-3.422c0.191-2.012-0.699-3.742-1.988-3.864   c-1.288-0.122-2.488,1.409-2.679,3.421C1206.131,535.388,1207.021,537.119,1208.309,537.241z"/>
	<path style="fill:#F29484;" d="M1196.22,580.697L1196.22,580.697c1.293,0.313,2.59,0.463,3.868,0.463   c7.387,0.002,14.074-5.026,15.894-12.513c0.304-1.256-0.466-2.521-1.722-2.825c-1.256-0.304-2.52,0.466-2.825,1.722   c-1.292,5.347-6.086,8.936-11.348,8.937c-0.911,0-1.837-0.107-2.765-0.332c-1.256-0.305-2.521,0.466-2.825,1.722   C1194.193,579.127,1194.964,580.393,1196.22,580.697z"/>
	<path style="fill:#F29484;" d="M1187.453,614.853L1187.453,614.853c0.16,0.036,0.321,0.067,0.481,0.102   c3.527,0.764,7.188,1.17,10.939,1.17c13.213,0.002,25.285-4.99,34.391-13.183c0.961-0.865,1.039-2.343,0.175-3.304   c-0.864-0.961-2.343-1.039-3.304-0.175c-8.29,7.453-19.236,11.982-31.263,11.984c-3.573,0-7.047-0.401-10.387-1.157   c-1.26-0.285-2.513,0.504-2.798,1.765c-0.176,0.776,0.057,1.549,0.556,2.095C1186.555,614.49,1186.969,614.744,1187.453,614.853z"/>
	<path style="fill:#F29484;" d="M1241.652,562.261c-1.119,0.646-1.502,2.076-0.856,3.195c0.646,1.119,2.077,1.502,3.195,0.856   l21.811-12.594c1.119-0.646,1.502-2.076,0.856-3.195c-0.646-1.118-2.077-1.502-3.195-0.856L1241.652,562.261z"/>
	<path style="fill:#375492;" d="M1354.771,882.045c-21.852-51.303-33.188-100.479-33.441-138.095   c-0.009-1.292-1.064-2.332-2.356-2.323s-2.332,1.064-2.322,2.356c0.274,37.834,11.38,86.43,32.689,137.224L1354.771,882.045z"/>
	<path style="fill:#C13E2A;" d="M831.255,1300.044l49.419-246.929c5.859-29.275,23.778-53.595,47.987-68.178   c-0.494-0.684-0.918-1.427-1.261-2.223l-0.85-1.971c-25.46,15.223-44.314,40.728-50.464,71.453l-49.07,245.186l-0.349,1.742   c-0.254,1.267,0.568,2.5,1.834,2.753h0.001C829.769,1302.132,831.001,1301.311,831.255,1300.044z"/>
	<path style="fill:#C13E2A;" d="M920.842,1427.19l45.759-87.068v-10.057l-49.901,94.948c-0.594,1.13-0.17,2.524,0.944,3.137   c0.013,0.007,0.024,0.016,0.038,0.022c0.808,0.425,1.749,0.328,2.445-0.167C920.417,1427.8,920.666,1427.526,920.842,1427.19z"/>
	<path style="fill:#F29484;" d="M1411.934,893.627l51.751,8.758c1.274,0.216,2.481-0.642,2.696-1.916   c0.216-1.274-0.642-2.482-1.916-2.697l-48.475-8.204l-3.276-0.554c-1.153-0.195-2.25,0.491-2.607,1.568   c-0.037,0.113-0.069,0.228-0.089,0.348C1409.802,892.204,1410.66,893.411,1411.934,893.627z"/>
	<path style="fill:#AE8932;" d="M918.102,961.151l8.448,19.593l0.85,1.971c0.343,0.795,0.767,1.539,1.261,2.223   c2.179,3.022,5.706,4.878,9.533,4.878h211.874c5.643,0,9.443-5.776,7.209-10.957l-57.817-134.095   c-1.858-4.309-6.101-7.101-10.794-7.101H877.806c-6.123,0-10.246,6.268-7.822,11.889l23.924,55.486L918.102,961.151z    M1001.844,898.429c5.15-2.972,13.281,1.471,18.164,9.927c4.882,8.455,4.665,17.72-0.485,20.693   c-5.15,2.974-13.282-1.471-18.164-9.927C996.478,910.667,996.695,901.403,1001.844,898.429z"/>
	<path style="fill:#F7BA4D;" d="M997.661,1300.85h-28.727c-0.793,0-1.571-0.06-2.332-0.175v379.891   c0,8.576,6.953,15.529,15.529,15.529s15.529-6.953,15.529-15.529V1300.85z"/>
	<path style="fill:#F7BA4D;" d="M1264.84,1680.566c0,8.576,6.952,15.529,15.529,15.529c8.577,0,15.529-6.953,15.529-15.529V1300.85   h-31.058V1680.566z"/>
	<path style="fill:#4458A4;" d="M1264.839,1147.635c-24.211,0-47.212-1.686-67.956-1.356c56.689,0.904,96.519,16.874,98.111,123.513   h134.295c0.547,0,1.087,0.029,1.619,0.084c-1.929-130.918-61.449-125.273-139.05-122.768   C1283.065,1147.392,1274.04,1147.635,1264.839,1147.635z"/>
	<path style="fill:#F7BA4D;" d="M1297.831,1269.791c8.577,0,15.53,6.953,15.53,15.529c0,8.577-6.953,15.53-15.53,15.53h131.458   c0.066,0,0.132-0.004,0.199-0.005c8.484-0.107,15.33-7.015,15.33-15.525c0-8.029-6.095-14.634-13.91-15.444   c-0.532-0.055-1.072-0.084-1.619-0.084H1297.831z"/>
</g>
</svg>